<svg width="40.000000" height="40.000000" viewBox="0 0 40 40" fill="none" xmlns="http://www.w3.org/2000/svg" xmlns:xlink="http://www.w3.org/1999/xlink">
	<desc>
			Created with Pixso.
	</desc>
	<defs/>
	<rect id="vuesax/outline/user-cirlce-add" rx="7.500000" width="39.000000" height="39.000000" transform="translate(0.500000 0.500000)" fill="#F0CF5C" fill-opacity="1.000000"/>
	<rect id="vuesax/bulk/document-download" rx="0.000000" width="23.000000" height="23.000000" transform="translate(8.500000 8.500000)" fill="#FFFFFF" fill-opacity="0"/>
	<g opacity="0.400000">
		<path id="Vector" d="M28.5 18.18L25.61 18.18C23.24 18.18 21.31 16.26 21.31 13.89L21.31 11C21.31 10.45 20.86 10 20.31 10L16.07 10C12.99 10 10.5 12 10.5 15.56L10.5 24.43C10.5 28 12.99 30 16.07 30L23.93 30C27.01 30 29.5 28 29.5 24.43L29.5 19.18C29.5 18.64 29.05 18.18 28.5 18.18Z" fill="#FFFFFF" fill-opacity="1.000000" fill-rule="nonzero"/>
	</g>
	<path id="Vector" d="M23.8 10.21C23.39 9.8 22.68 10.08 22.68 10.65L22.68 14.14C22.68 15.6 23.92 16.8 25.43 16.8C26.38 16.81 27.7 16.81 28.83 16.81C29.4 16.81 29.7 16.15 29.3 15.75C27.86 14.3 25.28 11.68 23.8 10.21Z" fill="#FFFFFF" fill-opacity="1.000000" fill-rule="nonzero"/>
	<path id="Vector" d="M20.28 22.72C19.99 22.43 19.51 22.43 19.21 22.72L18.5 23.43L18.5 19.25C18.5 18.84 18.16 18.5 17.75 18.5C17.34 18.5 17 18.84 17 19.25L17 23.43L16.28 22.72C15.99 22.43 15.51 22.43 15.22 22.72C14.93 23.01 14.93 23.49 15.22 23.78L17.21 25.78C17.23 25.79 17.24 25.79 17.24 25.8C17.29 25.86 17.37 25.91 17.45 25.95C17.56 25.98 17.65 26 17.75 26C17.85 26 17.94 25.98 18.03 25.93C18.12 25.9 18.2 25.85 18.28 25.78L20.28 23.78C20.57 23.49 20.57 23.01 20.28 22.72Z" fill="#FFFFFF" fill-opacity="1.000000" fill-rule="nonzero"/>
	<g opacity="0.000000"/>
</svg>
