<svg width="40.000000" height="40.000000" viewBox="0 0 40 40" fill="none" xmlns="http://www.w3.org/2000/svg" xmlns:xlink="http://www.w3.org/1999/xlink">
	<desc>
			Created with Pixso.
	</desc>
	<defs/>
	<rect id="vuesax/outline/user-cirlce-add" rx="7.500000" width="39.000000" height="39.000000" transform="translate(0.500000 0.500000)" fill="#3ABF70" fill-opacity="1.000000"/>
	<rect id="vuesax/bulk/music-square-add" rx="0.000000" width="23.000000" height="23.000000" transform="translate(8.500000 8.500000)" fill="#FFFFFF" fill-opacity="0"/>
	<g opacity="0.000000"/>
	<path id="Vector" d="M27.21 23.01C26.12 22.94 25 23.34 24.17 24.17C22.61 25.73 22.61 28.26 24.17 29.83C24.7 30.36 25.35 30.71 26.04 30.88C26.42 30.98 26.82 31.01 27.22 30.99C28.17 30.95 29.1 30.57 29.83 29.84C30.86 28.81 31.21 27.36 30.88 26.05C30.72 25.36 30.36 24.71 29.83 24.18C29.11 23.45 28.17 23.06 27.21 23.01ZM29.24 26.98C29.24 27.19 29.16 27.37 29.02 27.51C28.88 27.65 28.7 27.73 28.49 27.73L27.75 27.73L27.75 28.51C27.75 28.72 27.67 28.9 27.53 29.04C27.39 29.18 27.21 29.26 27 29.26C26.59 29.26 26.25 28.92 26.25 28.51L26.25 27.73L25.5 27.73C25.09 27.73 24.75 27.39 24.75 26.98C24.75 26.56 25.09 26.23 25.5 26.23L26.25 26.23L26.25 25.52C26.25 25.11 26.59 24.77 27 24.77C27.41 24.77 27.75 25.11 27.75 25.52L27.75 26.23L28.49 26.23C28.91 26.23 29.24 26.56 29.24 26.98Z" fill="#FFFFFF" fill-opacity="1.000000" fill-rule="nonzero"/>
	<g opacity="0.400000">
		<path id="Vector" d="M24.34 29.97C24.04 29.71 23.78 29.4 23.58 29.06C23.21 28.46 23 27.75 23 27C23 24.79 24.79 23 27 23C28.18 23 29.25 23.51 29.97 24.33C29.98 24.34 29.98 24.35 29.99 24.35C29.99 24.28 30 24.24 30 24.18L30 15.81C30 12.17 27.83 10 24.19 10L15.81 10C15.53 10 15.26 10.01 15 10.05C11.85 10.34 10 12.45 10 15.81L10 24.18C10 27.55 11.85 29.66 15 29.95C15.26 29.99 15.53 30 15.81 30L24.19 30C24.25 30 24.3 29.99 24.36 29.99C24.36 29.98 24.35 29.98 24.34 29.97Z" fill="#FFFFFF" fill-opacity="1.000000" fill-rule="nonzero"/>
	</g>
	<path id="Vector" d="M21.78 13.3C21.46 13.05 20.88 12.81 19.95 13.06L16.98 13.88C16.09 14.11 15.51 14.86 15.51 15.8L15.51 17.54L15.51 19.71C15.28 19.62 15.03 19.57 14.77 19.57C13.53 19.57 12.53 20.58 12.53 21.81C12.53 23.04 13.54 24.05 14.77 24.05C15.99 24.05 16.99 23.05 17.01 21.85C17.01 21.84 17.02 21.83 17.02 21.82L17.02 18.12L20.99 17.04L20.99 18.71C20.76 18.64 20.51 18.58 20.24 18.58C19 18.58 18 19.59 18 20.82C18 22.06 19.01 23.06 20.24 23.06C21.46 23.06 22.46 22.06 22.48 20.85C22.48 20.84 22.49 20.83 22.49 20.81L22.49 16.04L22.49 14.98C22.48 14.22 22.24 13.65 21.78 13.3ZM14.76 22.55C14.35 22.55 14.02 22.22 14.02 21.81C14.02 21.4 14.35 21.07 14.76 21.07C15.17 21.07 15.5 21.4 15.5 21.81C15.5 22.22 15.17 22.55 14.76 22.55ZM20.23 21.55C19.82 21.55 19.49 21.22 19.49 20.81C19.49 20.4 19.82 20.07 20.23 20.07C20.64 20.07 20.97 20.4 20.97 20.81C20.97 21.22 20.64 21.55 20.23 21.55Z" fill="#FFFFFF" fill-opacity="1.000000" fill-rule="nonzero"/>
</svg>
