<svg width="33.333252" height="33.333252" viewBox="0 0 33.3333 33.3333" fill="none" xmlns="http://www.w3.org/2000/svg" xmlns:xlink="http://www.w3.org/1999/xlink">
	<desc>
			Created with Pixso.
	</desc>
	<defs/>
	<path id="Vector" d="M31.61 10L30.83 10L30.83 17.68L30.61 17.5C29.31 16.38 27.21 16.38 25.91 17.5L18.98 23.45C17.68 24.56 15.58 24.56 14.28 23.45L13.71 22.98C12.53 21.95 10.64 21.85 9.31 22.75L3.08 26.93C2.71 26 2.5 24.91 2.5 23.64L2.5 9.68C2.5 4.98 4.98 2.5 9.68 2.5L23.33 2.5L23.33 1.71C23.33 1.05 23.45 0.48 23.71 0L9.68 0C3.61 0 0 3.61 0 9.68L0 23.64C0 25.46 0.31 27.05 0.93 28.38C2.36 31.55 5.43 33.33 9.68 33.33L23.64 33.33C29.71 33.33 33.33 29.71 33.33 23.64L33.33 9.61C32.85 9.88 32.28 10 31.61 10Z" fill="#230B3F" fill-opacity="0.300000" fill-rule="nonzero"/>
</svg>
