<svg width="40.000000" height="40.000000" viewBox="0 0 40 40" fill="none" xmlns="http://www.w3.org/2000/svg" xmlns:xlink="http://www.w3.org/1999/xlink">
	<desc>
			Created with Pixso.
	</desc>
	<defs/>
	<path id="Vector" d="M34.95 1.66L30.05 1.66C28.6 1.66 27.53 2.26 27.05 3.33C26.78 3.81 26.66 4.38 26.66 5.05L26.66 9.95C26.66 12.06 27.93 13.33 30.05 13.33L34.95 13.33C35.61 13.33 36.18 13.21 36.66 12.95C37.73 12.46 38.33 11.4 38.33 9.95L38.33 5.05C38.33 2.93 37.06 1.66 34.95 1.66ZM36.51 8.21C36.35 8.38 36.1 8.5 35.83 8.51L33.48 8.51L33.48 9.36L33.5 10.83C33.48 11.11 33.38 11.35 33.18 11.55C33.01 11.71 32.76 11.83 32.5 11.83C31.95 11.83 31.5 11.38 31.5 10.83L31.5 8.5L29.16 8.51C28.61 8.51 28.16 8.05 28.16 7.5C28.16 6.95 28.61 6.5 29.16 6.5L30.63 6.51L31.5 6.51L31.5 4.18C31.5 3.63 31.95 3.16 32.5 3.16C33.05 3.16 33.5 3.63 33.5 4.18L33.48 5.36L33.48 6.5L35.83 6.5C36.38 6.5 36.83 6.95 36.83 7.5C36.81 7.78 36.7 8.01 36.51 8.21Z" fill="#230B3F" fill-opacity="0.300000" fill-rule="nonzero"/>
	<path id="Vector" d="M18.96 13.33C18.96 15.52 17.19 17.29 14.99 17.29C12.8 17.29 11.03 15.52 11.03 13.33C11.03 11.14 12.8 9.36 14.99 9.36C17.19 9.36 18.96 11.14 18.96 13.33Z" fill="#230B3F" fill-opacity="0.300000" fill-rule="evenodd"/>
	<path id="Vector" d="M34.95 13.33L34.16 13.33L34.16 21.01L33.95 20.83C32.64 19.71 30.54 19.71 29.25 20.83L22.31 26.78C21.01 27.89 18.91 27.89 17.61 26.78L17.04 26.31C15.86 25.28 13.98 25.18 12.64 26.08L6.41 30.26C6.04 29.33 5.83 28.25 5.83 26.98L5.83 13.01C5.83 8.31 8.31 5.83 13.01 5.83L26.66 5.83L26.66 5.04C26.66 4.38 26.78 3.81 27.04 3.33L13.01 3.33C6.94 3.33 3.33 6.94 3.33 13.01L3.33 26.98C3.33 28.79 3.64 30.38 4.26 31.71C5.69 34.88 8.76 36.66 13.01 36.66L26.98 36.66C33.04 36.66 36.66 33.04 36.66 26.98L36.66 12.95C36.18 13.21 35.61 13.33 34.95 13.33Z" fill="#230B3F" fill-opacity="0.300000" fill-rule="nonzero"/>
	<g opacity="0.000000"/>
</svg>
