<svg width="19.000000" height="19.000000" viewBox="0 0 19 19" fill="none" xmlns="http://www.w3.org/2000/svg" xmlns:xlink="http://www.w3.org/1999/xlink">
	<desc>
			Created with Pixso.
	</desc>
	<defs>
		<clipPath id="clip60_6314">
			<rect id="icon-park-outline:search" rx="0.000000" width="18.000000" height="18.000000" transform="translate(0.500000 0.500000)" fill="white" fill-opacity="0"/>
		</clipPath>
	</defs>
	<rect id="icon-park-outline:search" rx="0.000000" width="18.000000" height="18.000000" transform="translate(0.500000 0.500000)" fill="#FFFFFF" fill-opacity="0"/>
	<g clip-path="url(#clip60_6314)">
		<path id="Vector" d="M15.04 8.31C15.04 4.59 12.02 1.58 8.31 1.58C4.59 1.58 1.58 4.59 1.58 8.31C1.58 12.02 4.59 15.04 8.31 15.04C12.02 15.04 15.04 12.02 15.04 8.31Z" stroke="#BDB6C5" stroke-opacity="1.000000" stroke-width="2.000000" stroke-linejoin="round"/>
		<path id="Vector" d="M10.55 5.67C10.25 5.38 9.9 5.14 9.52 4.99C9.14 4.83 8.72 4.74 8.31 4.75C7.89 4.74 7.48 4.83 7.1 4.99C6.71 5.14 6.36 5.38 6.07 5.67M13.15 13.15L16.5 16.5" stroke="#BDB6C5" stroke-opacity="1.000000" stroke-width="2.000000" stroke-linejoin="round" stroke-linecap="round"/>
	</g>
</svg>
