<svg width="64.000000" height="64.000000" viewBox="0 0 64 64" fill="none" xmlns="http://www.w3.org/2000/svg" xmlns:xlink="http://www.w3.org/1999/xlink">
	<desc>
			Created with Pixso.
	</desc>
	<defs>
		<clipPath id="clip1835_3452">
			<rect id="фото" rx="11.000000" width="62.000000" height="62.000000" transform="translate(1.000000 1.000000)" fill="white" fill-opacity="0"/>
		</clipPath>
	</defs>
	<rect id="фото" rx="11.000000" width="62.000000" height="62.000000" transform="translate(1.000000 1.000000)" fill="#6B27FF" fill-opacity="1.000000"/>
	<g clip-path="url(#clip1835_3452)">
		<rect id="vuesax/bold/music-square" rx="0.000000" width="39.000000" height="39.000000" transform="translate(13.000000 12.500000)" fill="#FFFFFF" fill-opacity="0"/>
		<g opacity="0.000000"/>
		<path id="Vector" d="M36.73 34.78C36.13 34.78 35.64 35.26 35.64 35.86C35.64 36.46 36.13 36.95 36.73 36.95C37.33 36.95 37.81 36.46 37.81 35.86C37.79 35.26 37.31 34.78 36.73 34.78Z" fill="#FFFFFF" fill-opacity="1.000000" fill-rule="nonzero"/>
		<path id="Vector" d="M27.6 36.43C27 36.43 26.51 36.91 26.51 37.51C26.51 38.11 27 38.59 27.6 38.59C28.19 38.59 28.68 38.11 28.68 37.51C28.68 36.91 28.19 36.43 27.6 36.43Z" fill="#FFFFFF" fill-opacity="1.000000" fill-rule="nonzero"/>
		<path id="Vector" d="M39.48 15.33L25.51 15.33C19.45 15.33 15.83 18.95 15.83 25.01L15.83 38.96C15.83 45.05 19.45 48.66 25.51 48.66L39.46 48.66C45.53 48.66 49.15 45.05 49.15 38.98L49.15 25.01C49.16 18.95 45.55 15.33 39.48 15.33ZM40.63 27.91L40.63 35.84C40.63 38 38.88 39.75 36.73 39.75C34.58 39.75 32.83 38 32.83 35.84C32.83 33.7 34.58 31.95 36.73 31.95C37.11 31.95 37.46 32.01 37.81 32.11L37.81 29.75L31.51 31.46L31.51 37.5C31.51 37.51 31.5 37.53 31.5 37.55C31.48 39.68 29.73 41.4 27.6 41.4C25.45 41.4 23.7 39.65 23.7 37.5C23.7 35.34 25.45 33.59 27.6 33.59C27.98 33.59 28.33 33.66 28.68 33.76L28.68 30.38L28.68 27.48C28.68 25.86 29.68 24.55 31.25 24.13L36.23 22.76C37.83 22.33 38.83 22.75 39.4 23.18C39.95 23.61 40.63 24.46 40.63 26.13L40.63 27.91Z" fill="#FFFFFF" fill-opacity="1.000000" fill-rule="nonzero"/>
	</g>
</svg>
