<svg width="40.000000" height="40.000000" viewBox="0 0 40 40" fill="none" xmlns="http://www.w3.org/2000/svg" xmlns:xlink="http://www.w3.org/1999/xlink">
	<desc>
			Created with Pixso.
	</desc>
	<defs/>
	<rect id="vuesax/outline/user-cirlce-add" rx="7.500000" width="39.000000" height="39.000000" transform="translate(0.500000 0.500000)" fill="#F0CF5C" fill-opacity="1.000000"/>
	<rect id="vuesax/bulk/note" rx="0.000000" width="23.000000" height="23.000000" transform="translate(8.500000 8.500000)" fill="#FFFFFF" fill-opacity="0"/>
	<g opacity="0.400000">
		<path id="Vector" d="M29.65 18.44L28.67 22.62C27.84 26.23 26.17 27.69 23.05 27.39C22.55 27.35 22.02 27.26 21.43 27.12L19.75 26.72C15.59 25.73 14.29 23.67 15.27 19.49L16.25 15.3C16.45 14.45 16.7 13.71 16.99 13.1C18.16 10.68 20.15 10.03 23.49 10.82L25.16 11.21C29.35 12.19 30.64 14.26 29.65 18.44Z" fill="#FFFFFF" fill-opacity="1.000000" fill-rule="nonzero"/>
	</g>
	<path id="Vector" d="M23.06 27.39C22.44 27.8 21.66 28.16 20.71 28.47L19.12 28.99C15.16 30.27 13.06 29.2 11.78 25.23L10.5 21.28C9.21 17.3 10.28 15.21 14.25 13.92L15.83 13.41C16.24 13.28 16.62 13.16 17 13.1C16.7 13.71 16.45 14.45 16.25 15.29L15.28 19.49C14.3 23.66 15.59 25.73 19.75 26.72L21.44 27.12C22.02 27.26 22.56 27.35 23.06 27.39Z" fill="#FFFFFF" fill-opacity="1.000000" fill-rule="nonzero"/>
	<g opacity="0.000000"/>
</svg>
