<svg width="40.000000" height="40.000000" viewBox="0 0 40 40" fill="none" xmlns="http://www.w3.org/2000/svg" xmlns:xlink="http://www.w3.org/1999/xlink">
	<desc>
			Created with Pixso.
	</desc>
	<defs/>
	<rect id="vuesax/outline/user-cirlce-add" rx="7.500000" width="39.000000" height="39.000000" transform="translate(0.500000 0.500000)" fill="#DA7568" fill-opacity="1.000000"/>
	<rect id="vuesax/bulk/menu-board" rx="0.000000" width="23.000000" height="23.000000" transform="translate(8.500000 8.500000)" fill="#FFFFFF" fill-opacity="0"/>
	<g opacity="0.000000"/>
	<g opacity="0.400000">
		<path id="Vector" d="M29.99 14.02C30.01 14.26 29.99 14.51 29.93 14.76L26.56 28.28C26.32 29.29 25.42 30 24.38 30L11.24 30C9.72 30 8.65 28.51 9.09 27.06L13.31 13.53C13.6 12.6 14.47 11.96 15.45 11.96L27.75 11.96C28.71 11.96 29.49 12.52 29.82 13.33C29.92 13.53 29.97 13.77 29.99 14.02Z" fill="#FFFFFF" fill-opacity="1.000000" fill-rule="nonzero"/>
	</g>
	<path id="Vector" d="M30.99 27.62C31.09 28.91 30.07 30 28.78 30L24.38 30C25.42 30 26.32 29.29 26.56 28.29L29.93 14.76C29.99 14.51 30.01 14.26 29.99 14.02L30 14L30.99 27.62Z" fill="#FFFFFF" fill-opacity="1.000000" fill-rule="nonzero"/>
	<path id="Vector" d="M17.68 15.13C17.62 15.13 17.56 15.12 17.5 15.11C17.1 15.01 16.85 14.61 16.95 14.2L17.99 9.88C18.09 9.47 18.49 9.23 18.9 9.33C19.29 9.43 19.54 9.82 19.45 10.24L18.41 14.56C18.33 14.9 18.02 15.13 17.68 15.13Z" fill="#FFFFFF" fill-opacity="1.000000" fill-rule="nonzero"/>
	<path id="Vector" d="M24.37 15.14C24.33 15.14 24.27 15.14 24.21 15.12C23.81 15.03 23.55 14.63 23.64 14.23L24.57 9.89C24.66 9.48 25.06 9.22 25.46 9.31C25.86 9.4 26.12 9.8 26.04 10.2L25.1 14.54C25.03 14.9 24.72 15.14 24.37 15.14Z" fill="#FFFFFF" fill-opacity="1.000000" fill-rule="nonzero"/>
	<path id="Vector" d="M23.7 20.75L15.7 20.75C15.29 20.75 14.95 20.41 14.95 20C14.95 19.59 15.29 19.25 15.7 19.25L23.7 19.25C24.11 19.25 24.45 19.59 24.45 20C24.45 20.41 24.11 20.75 23.7 20.75Z" fill="#FFFFFF" fill-opacity="1.000000" fill-rule="nonzero"/>
	<path id="Vector" d="M22.7 24.75L14.7 24.75C14.29 24.75 13.95 24.41 13.95 24C13.95 23.59 14.29 23.25 14.7 23.25L22.7 23.25C23.11 23.25 23.45 23.59 23.45 24C23.45 24.41 23.11 24.75 22.7 24.75Z" fill="#FFFFFF" fill-opacity="1.000000" fill-rule="nonzero"/>
</svg>
