<svg width="40.000000" height="40.000000" viewBox="0 0 40 40" fill="none" xmlns="http://www.w3.org/2000/svg" xmlns:xlink="http://www.w3.org/1999/xlink">
	<desc>
			Created with Pixso.
	</desc>
	<defs/>
	<rect id="vuesax/outline/user-cirlce-add" rx="7.500000" width="39.000000" height="39.000000" transform="translate(0.500000 0.500000)" fill="#3ABF70" fill-opacity="1.000000"/>
	<rect id="vuesax/bulk/music-library-2" rx="0.000000" width="23.000000" height="23.000000" transform="translate(8.500000 8.500000)" fill="#FFFFFF" fill-opacity="0"/>
	<g opacity="0.000000"/>
	<path id="Vector" d="M27 15L27 16.12C26.68 16.04 26.35 16 26 16L14 16C13.65 16 13.32 16.04 13 16.12L13 15C13 13.9 13.9 13 15 13L25 13C26.1 13 27 13.9 27 15Z" fill="#FFFFFF" fill-opacity="1.000000" fill-rule="nonzero"/>
	<g opacity="0.400000">
		<path id="Vector" d="M24 11.51L24 13L16 13L16 11.51C16 10.68 16.68 10 17.51 10L22.49 10C23.32 10 24 10.68 24 11.51Z" fill="#FFFFFF" fill-opacity="1.000000" fill-rule="nonzero"/>
	</g>
	<g opacity="0.400000">
		<path id="Vector" d="M30 20L30 26C30 28.2 28.2 30 26 30L14 30C11.8 30 10 28.2 10 26L10 20C10 18.15 11.28 16.58 13 16.12C13.32 16.04 13.65 16 14 16L26 16C26.35 16 26.68 16.04 27 16.12C28.72 16.58 30 18.15 30 20Z" fill="#FFFFFF" fill-opacity="1.000000" fill-rule="nonzero"/>
	</g>
	<path id="Vector" d="M23.35 18.51C23.05 18.28 22.5 18.06 21.66 18.29L19.01 19.02C18.18 19.24 17.65 19.94 17.65 20.8L17.65 22.35L17.65 24.15C17.46 24.1 17.27 24.06 17.07 24.06C15.93 24.06 15 24.99 15 26.13C15 27.27 15.93 28.2 17.07 28.2C18.2 28.2 19.12 27.28 19.14 26.15C19.14 26.14 19.15 26.13 19.15 26.12L19.15 22.91L22.5 22L22.5 23.26C22.32 23.21 22.13 23.17 21.93 23.17C20.79 23.17 19.86 24.1 19.86 25.24C19.86 26.38 20.79 27.31 21.93 27.31C23.07 27.31 24 26.38 24 25.24L24 21.02L24 20.07C24 19.2 23.64 18.74 23.35 18.51ZM17.07 26.71C16.75 26.71 16.5 26.45 16.5 26.14C16.5 25.83 16.76 25.57 17.07 25.57C17.37 25.57 17.64 25.83 17.64 26.14C17.64 26.45 17.39 26.71 17.07 26.71ZM21.93 25.82C21.61 25.82 21.36 25.56 21.36 25.25C21.36 24.94 21.62 24.68 21.93 24.68C22.24 24.68 22.5 24.94 22.5 25.25C22.5 25.56 22.24 25.82 21.93 25.82Z" fill="#FFFFFF" fill-opacity="1.000000" fill-rule="nonzero"/>
</svg>
