<svg width="26.653320" height="26.666748" viewBox="0 0 26.6533 26.6667" fill="none" xmlns="http://www.w3.org/2000/svg" xmlns:xlink="http://www.w3.org/1999/xlink">
	<desc>
			Created with Pixso.
	</desc>
	<defs/>
	<path id="Vector" d="M18.91 0L7.74 0C2.89 0 0 2.89 0 7.74L0 18.9C0 23.77 2.89 26.66 7.74 26.66L18.9 26.66C23.76 26.66 26.65 23.77 26.65 18.91L26.65 7.74C26.66 2.89 23.77 0 18.91 0ZM17.81 16.39C18.2 16.78 18.2 17.42 17.81 17.81C17.61 18.01 17.36 18.1 17.1 18.1C16.85 18.1 16.6 18.01 16.39 17.81L13.33 14.74L10.26 17.81C10.06 18.01 9.81 18.1 9.56 18.1C9.3 18.1 9.05 18.01 8.85 17.81C8.46 17.42 8.46 16.78 8.85 16.39L11.91 13.33L8.85 10.26C8.46 9.87 8.46 9.23 8.85 8.85C9.23 8.46 9.87 8.46 10.26 8.85L13.33 11.91L16.39 8.85C16.78 8.46 17.42 8.46 17.81 8.85C18.2 9.23 18.2 9.87 17.81 10.26L14.74 13.33L17.81 16.39Z" fill="#C3C3D0" fill-opacity="1.000000" fill-rule="nonzero"/>
</svg>
