<svg width="22.000000" height="22.000000" viewBox="0 0 22 22" fill="none" xmlns="http://www.w3.org/2000/svg" xmlns:xlink="http://www.w3.org/1999/xlink">
	<desc>
			Created with Pixso.
	</desc>
	<defs>
		<clipPath id="clip1835_1394">
			<rect id="trash-03" rx="0.000000" width="21.000000" height="21.000000" transform="translate(0.500000 0.500000)" fill="white" fill-opacity="0"/>
		</clipPath>
	</defs>
	<rect id="trash-03" rx="0.000000" width="21.000000" height="21.000000" transform="translate(0.500000 0.500000)" fill="#FFFFFF" fill-opacity="0"/>
	<g clip-path="url(#clip1835_1394)">
		<path id="Icon" d="M8.25 2.75L13.75 2.75M2.75 5.5L19.25 5.5M17.41 5.5L16.77 15.14C16.67 16.58 16.62 17.31 16.31 17.86C16.04 18.34 15.62 18.73 15.12 18.97C14.55 19.25 13.83 19.25 12.38 19.25L9.61 19.25C8.16 19.25 7.44 19.25 6.87 18.97C6.37 18.73 5.95 18.34 5.68 17.86C5.37 17.31 5.32 16.58 5.22 15.14L4.58 5.5M9.16 9.62L9.16 14.2M12.83 9.62L12.83 14.2" stroke="#DB422B" stroke-opacity="1.000000" stroke-width="1.500000" stroke-linejoin="round" stroke-linecap="round"/>
	</g>
</svg>
